<svg width="100%" height="auto" viewBox="0 0 9700 2451" fill="none" xmlns="http://www.w3.org/2000/svg">
<path d="M2047.3 707.107V1009.88H1236.7V1750.31H900V1005.07C900 840.508 1033.4 707.107 1197.96 707.107H2047.3ZM1338 1361.47V1099.27H1828.15V1361.47H1338Z" fill="#39B54A"/>
<path d="M1929.53 1750.31V1099.27H2266.23V1750.31H1929.53Z" fill="#39B54A"/>
<path d="M2928.31 707.107V1009.95H2706.29V1750.31H2367.27V1009.88H2149.09V707.107H2928.31Z" fill="#39B54A"/>
<path d="M4280.68 707.449L3555.2 1747.46L3029.44 1006.82V707.449H3200.57L3555.2 1176.17L3897.8 707.449H4280.68Z" fill="white"/>
<path d="M4382.45 1750.31V707.449H4719.15V1750.31H4382.45Z" fill="white"/>
<path d="M5608.92 1090.33C5707.25 1090.33 5782.23 1118.63 5833.88 1175.25C5886.52 1230.87 5911.85 1309.83 5909.86 1412.13C5908.87 1461.79 5901.42 1507.47 5887.51 1549.19C5873.61 1589.91 5853.25 1625.17 5826.43 1654.96C5799.62 1684.76 5766.84 1708.1 5728.11 1724.99C5689.37 1741.87 5645.17 1750.31 5595.51 1750.31H4875.94V1450.86H5538.9C5557.77 1450.86 5572.17 1446.39 5582.1 1437.45C5592.04 1428.51 5597 1418.58 5597 1407.66C5597 1397.72 5592.53 1389.28 5583.59 1382.33C5574.66 1374.38 5561.25 1370.41 5543.37 1370.41H5141.12C5092.46 1370.41 5048.26 1362.96 5008.53 1348.06C4968.8 1333.17 4934.54 1311.81 4905.73 1284C4877.92 1255.2 4856.57 1220.93 4841.67 1181.21C4826.77 1141.48 4819.82 1096.29 4820.81 1045.63C4821.81 995.974 4830.25 950.784 4846.14 910.062C4863.03 868.348 4885.87 832.593 4914.67 802.796C4943.47 773 4978.24 750.157 5018.96 734.265C5059.68 717.381 5105.37 708.939 5156.02 708.939H5842.82V1008.39H5193.27C5176.38 1008.39 5162.97 1012.36 5153.04 1020.31C5144.1 1028.25 5139.63 1037.69 5139.63 1048.61C5139.63 1059.54 5144.1 1069.47 5153.04 1078.41C5162.97 1086.36 5177.37 1090.33 5196.24 1090.33H5608.92Z" fill="white"/>
<path d="M6011.35 1750.31V707.449H6348.04V1228.88V1750.31H6011.35Z" fill="white"/>
<path d="M7176.82 700C7254.29 700 7325.31 711.918 7389.87 735.755C7455.42 758.599 7511.53 792.368 7558.21 837.062C7605.89 880.763 7642.64 934.892 7668.46 999.451C7695.28 1064.01 7708.68 1137.51 7708.68 1219.94C7708.68 1303.37 7695.28 1377.86 7668.46 1443.41C7641.64 1508.96 7604.4 1564.58 7556.72 1610.27C7509.05 1654.96 7452.93 1689.73 7388.38 1714.56C7323.82 1738.39 7253.3 1750.31 7176.82 1750.31H6981.66C6905.18 1750.31 6834.67 1738.39 6770.11 1714.56C6705.55 1689.73 6649.43 1654.96 6601.76 1610.27C6554.09 1564.58 6516.84 1508.96 6490.02 1443.41C6463.21 1377.86 6449.8 1303.87 6449.8 1221.43C6449.8 1138 6462.71 1064.01 6488.53 999.451C6515.35 934.892 6552.6 880.763 6600.27 837.062C6647.94 792.368 6704.06 758.599 6768.62 735.755C6834.17 711.918 6905.18 700 6981.66 700H7176.82ZM7176.82 1449.37C7210.59 1449.37 7239.4 1443.41 7263.23 1431.49C7287.07 1418.58 7306.93 1401.7 7322.82 1380.84C7338.72 1359.98 7350.14 1335.65 7357.09 1307.84C7365.04 1280.03 7369.01 1250.73 7369.01 1219.94C7369.01 1155.38 7353.61 1103.24 7322.82 1063.51C7293.03 1022.79 7244.36 1002.43 7176.82 1002.43H6981.66C6914.12 1002.43 6864.96 1022.79 6834.17 1063.51C6804.37 1103.24 6789.47 1155.38 6789.47 1219.94C6789.47 1250.73 6792.95 1280.03 6799.9 1307.84C6807.85 1335.65 6819.77 1359.98 6835.66 1380.84C6851.55 1401.7 6871.41 1418.58 6895.25 1431.49C6919.09 1443.41 6947.89 1449.37 6981.66 1449.37H7176.82Z" fill="white"/>
<path d="M8800.85 707.449V1750.51L8146.83 1306.35V1750.31H7810.13V707.449L8464.15 1154.39V707.449H8800.85Z" fill="white"/>
</svg>
